<svg width="50" height="50" viewBox="0 0 50 50" fill="none" xmlns="http://www.w3.org/2000/svg">
<g id="analytics-chart 1">
<path id="Vector" d="M46.875 32.8125V12.5C46.875 11.2568 46.3811 10.0645 45.5021 9.18544C44.623 8.30636 43.4307 7.8125 42.1875 7.8125H7.8125C6.5693 7.8125 5.37701 8.30636 4.49794 9.18544C3.61886 10.0645 3.125 11.2568 3.125 12.5V32.8125C2.7106 32.8125 2.31317 32.9771 2.02015 33.2701C1.72712 33.5632 1.5625 33.9606 1.5625 34.375C1.5625 36.447 2.3856 38.4341 3.85073 39.8993C4.57619 40.6247 5.43743 41.2002 6.38529 41.5928C7.33314 41.9854 8.34905 42.1875 9.375 42.1875H40.625C42.697 42.1875 44.6841 41.3644 46.1493 39.8993C47.6144 38.4341 48.4375 36.447 48.4375 34.375C48.4375 33.9606 48.2729 33.5632 47.9799 33.2701C47.6868 32.9771 47.2894 32.8125 46.875 32.8125ZM6.25 12.5C6.25 12.0856 6.41462 11.6882 6.70765 11.3951C7.00067 11.1021 7.3981 10.9375 7.8125 10.9375H42.1875C42.6019 10.9375 42.9993 11.1021 43.2924 11.3951C43.5854 11.6882 43.75 12.0856 43.75 12.5V32.8125H6.25V12.5ZM40.625 39.0625H9.375C8.40523 39.063 7.45918 38.7627 6.66722 38.203C5.87526 37.6433 5.27638 36.8518 4.95312 35.9375H45.0469C44.7236 36.8518 44.1247 37.6433 43.3328 38.203C42.5408 38.7627 41.5948 39.063 40.625 39.0625Z" fill="#FF6647"/>
<path id="Vector_2" d="M40.625 12.5H34.375C33.9606 12.5 33.5632 12.6646 33.2701 12.9576C32.9771 13.2507 32.8125 13.6481 32.8125 14.0625C32.8125 14.4769 32.9771 14.8743 33.2701 15.1674C33.5632 15.4604 33.9606 15.625 34.375 15.625H36.7812L25 27.4688L18.2969 20.7656C18.0041 20.4746 17.6081 20.3113 17.1953 20.3113C16.7825 20.3113 16.3865 20.4746 16.0937 20.7656L8.18748 28.5781C7.92924 28.8752 7.79263 29.2588 7.80497 29.6522C7.81731 30.0456 7.97768 30.4199 8.25404 30.7002C8.53039 30.9805 8.90236 31.1462 9.29557 31.1641C9.68879 31.182 10.0743 31.0509 10.375 30.7969L17.1875 24.0781L23.8906 30.7969C24.19 31.0824 24.5863 31.2442 25 31.25C25.2056 31.2512 25.4095 31.2118 25.5998 31.134C25.7902 31.0563 25.9634 30.9417 26.1094 30.7969L39.0625 17.75V20.3125C39.0625 20.7269 39.2271 21.1243 39.5201 21.4174C39.8132 21.7104 40.2106 21.875 40.625 21.875C41.0394 21.875 41.4368 21.7104 41.7298 21.4174C42.0229 21.1243 42.1875 20.7269 42.1875 20.3125V14.0625C42.1875 13.6481 42.0229 13.2507 41.7298 12.9576C41.4368 12.6646 41.0394 12.5 40.625 12.5Z" fill="#FF6647"/>
</g>
</svg>
