<svg width="24" height="24" viewBox="0 0 24 24" fill="none" xmlns="http://www.w3.org/2000/svg">
<g id="bed">
<path id="Vector" d="M21.6552 15.8091H21.3103V13.9044C21.3103 13.2729 21.1287 12.6673 20.8054 12.2208C20.482 11.7743 20.0435 11.5235 19.5862 11.5235H19.2414V5.33323C19.2414 4.4492 18.9871 3.60138 18.5344 2.97628C18.0817 2.35118 17.4678 2 16.8276 2H7.17241C6.53224 2 5.91828 2.35118 5.4656 2.97628C5.01293 3.60138 4.75862 4.4492 4.75862 5.33323V11.5235H4.41379C3.95652 11.5235 3.51798 11.7743 3.19464 12.2208C2.8713 12.6673 2.68966 13.2729 2.68966 13.9044V15.8091H2.34483C2.25337 15.8091 2.16567 15.8592 2.101 15.9485C2.03633 16.0378 2 16.159 2 16.2853V21.5232C2 21.6495 2.03633 21.7706 2.101 21.8599C2.16567 21.9492 2.25337 21.9994 2.34483 21.9994H4.87241C4.9447 21.9996 5.01523 21.9685 5.07401 21.9104C5.13279 21.8523 5.17687 21.7701 5.2 21.6756L5.44828 20.5946C5.51981 20.3152 5.6525 20.0735 5.82797 19.9028C6.00343 19.7322 6.21298 19.6411 6.42759 19.6423H17.5586C17.7732 19.6411 17.9828 19.7322 18.1582 19.9028C18.3337 20.0735 18.4664 20.3152 18.5379 20.5946L18.8 21.6756C18.824 21.7741 18.8707 21.8591 18.933 21.9176C18.9952 21.9761 19.0696 22.0048 19.1448 21.9994H21.6552C21.7466 21.9994 21.8343 21.9492 21.899 21.8599C21.9637 21.7706 22 21.6495 22 21.5232V16.2853C22 16.159 21.9637 16.0378 21.899 15.9485C21.8343 15.8592 21.7466 15.8091 21.6552 15.8091ZM5.44828 5.33323C5.44828 4.70178 5.62993 4.09619 5.95326 3.64969C6.2766 3.20319 6.71514 2.95235 7.17241 2.95235H16.8276C17.2849 2.95235 17.7234 3.20319 18.0467 3.64969C18.3701 4.09619 18.5517 4.70178 18.5517 5.33323V11.5235H17.4552C17.5586 11.1235 17.5 10.9473 17.5172 10.095C17.5172 9.71611 17.4083 9.35276 17.2142 9.08486C17.0202 8.81696 16.7571 8.66645 16.4828 8.66645H14.069C13.7946 8.66645 13.5315 8.81696 13.3375 9.08486C13.1435 9.35276 13.0345 9.71611 13.0345 10.095C13.0345 10.9473 12.9931 11.1235 13.0966 11.5235H10.9034C11.0069 11.1235 10.9483 10.9473 10.9655 10.095C10.9655 9.71611 10.8565 9.35276 10.6625 9.08486C10.4685 8.81696 10.2054 8.66645 9.93103 8.66645H7.51724C7.24288 8.66645 6.97975 8.81696 6.78575 9.08486C6.59175 9.35276 6.48276 9.71611 6.48276 10.095C6.5 10.9473 6.44138 11.1235 6.54483 11.5235H5.44828V5.33323ZM13.7241 11.0473V10.095C13.7241 9.96869 13.7605 9.84757 13.8251 9.75827C13.8898 9.66897 13.9775 9.6188 14.069 9.6188H16.4828C16.5742 9.6188 16.6619 9.66897 16.7266 9.75827C16.7913 9.84757 16.8276 9.96869 16.8276 10.095V11.0473C16.8276 11.1736 16.7913 11.2947 16.7266 11.384C16.6619 11.4733 16.5742 11.5235 16.4828 11.5235H14.069C13.9775 11.5235 13.8898 11.4733 13.8251 11.384C13.7605 11.2947 13.7241 11.1736 13.7241 11.0473ZM7.17241 11.0473V10.095C7.17241 9.96869 7.20874 9.84757 7.27341 9.75827C7.33808 9.66897 7.42579 9.6188 7.51724 9.6188H9.93103C10.0225 9.6188 10.1102 9.66897 10.1749 9.75827C10.2395 9.84757 10.2759 9.96869 10.2759 10.095V11.0473C10.2759 11.1736 10.2395 11.2947 10.1749 11.384C10.1102 11.4733 10.0225 11.5235 9.93103 11.5235H7.51724C7.42579 11.5235 7.33808 11.4733 7.27341 11.384C7.20874 11.2947 7.17241 11.1736 7.17241 11.0473ZM3.37931 13.9044C3.37931 13.5255 3.4883 13.1622 3.6823 12.8943C3.87631 12.6264 4.13943 12.4759 4.41379 12.4759H19.5862C19.8606 12.4759 20.1237 12.6264 20.3177 12.8943C20.5117 13.1622 20.6207 13.5255 20.6207 13.9044V15.8091H3.37931V13.9044ZM21.3103 21.047H19.3759L19.1931 20.2946C19.0788 19.8207 18.8595 19.4085 18.5661 19.1162C18.2728 18.824 17.9203 18.6665 17.5586 18.6661H6.44138C6.07967 18.6665 5.7272 18.824 5.43387 19.1162C5.14054 19.4085 4.9212 19.8207 4.8069 20.2946L4.62414 21.047H2.68966V16.7614H21.3103V21.047Z" fill="#6D6D6D"/>
</g>
</svg>
