<svg width="24" height="24" viewBox="0 0 24 24" fill="none" xmlns="http://www.w3.org/2000/svg">
<g id="garage" clip-path="url(#clip0_135_441)">
<path id="Vector" d="M23.993 9.46618C23.9592 9.15193 23.7923 8.87218 23.522 8.67719L12.2112 0.585811C12.0845 0.495811 11.9146 0.495811 11.7886 0.585811L7.43147 3.70281V1.49481C7.43147 1.29381 7.26797 1.13106 7.06734 1.13106H4.21959C4.01897 1.13106 3.85622 1.29381 3.85622 1.49481V6.25994L0.47597 8.67794C0.206345 8.87218 0.0394699 9.15231 0.00571988 9.46618C-0.0272801 9.77256 0.0717199 10.0726 0.29222 10.3186L0.368345 10.3981C0.78647 10.8694 1.55184 10.9501 2.07647 10.5766L3.44372 9.59781V21.5161H1.38384C1.18247 21.5161 1.01972 21.6788 1.01972 21.8798V23.1188C1.01972 23.3198 1.18247 23.4826 1.38384 23.4826H22.6163C22.817 23.4826 22.9797 23.3198 22.9797 23.1188V21.8798C22.9797 21.6788 22.817 21.5161 22.6163 21.5161H20.5538V9.59668L21.9241 10.5766C22.1506 10.7382 22.4165 10.8166 22.6808 10.8166C23.036 10.8166 23.387 10.6744 23.6307 10.4022L23.7151 10.3103C23.9281 10.0726 24.0267 9.77293 23.993 9.46618ZM4.5841 1.85856H6.70434V4.22331L4.5841 5.74019V1.85856ZM22.2522 22.2432V22.7547H1.74722V22.2432H22.2522ZM4.17159 21.5161V9.07769L11.9997 3.47706L19.8263 9.07618V21.5161H4.17159ZM23.1758 9.82244L23.0915 9.91393C22.9133 10.1134 22.5713 10.1449 22.3467 9.98444L12.2112 2.73456C12.1482 2.68956 12.0743 2.66669 11.9997 2.66669C11.9258 2.66669 11.8516 2.68956 11.7882 2.73456L2.72784 9.21568L1.65347 9.98444C1.42772 10.1457 1.08872 10.1138 0.90422 9.90569L0.826595 9.82506C0.75197 9.74181 0.71822 9.64468 0.729095 9.54456C0.74072 9.43843 0.80222 9.33981 0.90122 9.26856L11.9997 1.32869L23.0975 9.26781C23.198 9.33981 23.2595 9.43806 23.2703 9.54418C23.2812 9.64468 23.2475 9.74181 23.1758 9.82244Z" fill="#6D6D6D"/>
<path id="Vector_2" d="M7.77568 17.1161C8.43943 17.1161 8.9798 16.5761 8.9798 15.912C8.9798 15.2479 8.43943 14.7079 7.77568 14.7079C7.11155 14.7079 6.5708 15.2479 6.5708 15.912C6.5708 16.5761 7.11155 17.1161 7.77568 17.1161ZM7.77568 15.435C8.03855 15.435 8.2523 15.6484 8.2523 15.9116C8.2523 16.1749 8.03855 16.3886 7.77568 16.3886C7.5128 16.3886 7.2983 16.1749 7.2983 15.9116C7.2983 15.6484 7.5128 15.435 7.77568 15.435ZM16.2252 17.1161C16.8893 17.1161 17.4301 16.5761 17.4301 15.912C17.4301 15.2479 16.8897 14.7079 16.2252 14.7079C15.5614 14.7079 15.0211 15.2479 15.0211 15.912C15.0211 16.5761 15.5614 17.1161 16.2252 17.1161ZM16.2252 15.435C16.4881 15.435 16.7026 15.6484 16.7026 15.9116C16.7026 16.1749 16.4881 16.3886 16.2252 16.3886C15.9623 16.3886 15.7486 16.1749 15.7486 15.9116C15.7486 15.6484 15.9619 15.435 16.2252 15.435ZM16.2447 12.4785L14.7863 9.70501C14.7241 9.58538 14.5996 9.51001 14.4649 9.51001H9.66343C9.53293 9.51001 9.41218 9.58051 9.34768 9.69338L7.7618 12.4669C7.69805 12.5794 7.69805 12.7178 7.7633 12.8299C7.82855 12.942 7.9478 13.011 8.07755 13.011H15.9226C16.0501 13.011 16.1678 12.9439 16.2338 12.8351C16.2998 12.7264 16.3043 12.5914 16.2447 12.4785ZM8.70455 12.2843L9.87418 10.2375H14.2452L15.3211 12.2843H8.70455Z" fill="#6D6D6D"/>
<path id="Vector_3" d="M19.0647 13.722C19.0602 13.7107 19.0579 13.6987 19.0531 13.6882C19.0523 13.686 19.0523 13.6834 19.0508 13.6811L16.5526 8.52374C16.4918 8.39774 16.3651 8.31824 16.2252 8.31824H14.1676H13.8623H10.1363H7.99468C7.86005 8.31824 7.7363 8.39286 7.6733 8.51249L4.9538 13.6695C4.9493 13.677 4.94855 13.6845 4.94518 13.692C4.94293 13.6976 4.94143 13.7029 4.93918 13.7085C4.92005 13.7565 4.91068 13.8064 4.91293 13.857V17.3636C4.91293 17.7825 5.17655 18.1384 5.54593 18.2812C5.60368 18.3202 5.67043 18.3491 5.7458 18.3491H5.89805H6.0893V19.0114C6.0893 19.7156 6.66118 20.2894 7.3643 20.2894C8.06893 20.2894 8.6423 19.7156 8.6423 19.0114V18.3487H15.3586V19.011C15.3586 19.7152 15.9319 20.289 16.6366 20.289C17.3397 20.289 17.9116 19.7152 17.9116 19.011V18.3487H17.9498H18.1028C18.6462 18.3487 19.0879 17.9066 19.0879 17.3632V13.8397C19.0879 13.8319 19.0842 13.8247 19.0834 13.8169C19.0816 13.7846 19.0748 13.7531 19.0647 13.722ZM8.21443 9.04574H10.1363H13.8623H14.1676H15.9972L18.1433 13.4756H5.87818L8.21443 9.04574ZM7.9148 19.0106C7.9148 19.3144 7.6673 19.5615 7.36393 19.5615C7.0613 19.5615 6.81605 19.3144 6.81605 19.0106V18.3487H7.9148V19.0106ZM17.1844 19.0106C17.1844 19.3144 16.9392 19.5615 16.6366 19.5615C16.3324 19.5615 16.0857 19.3144 16.0857 19.0106V18.3487H17.1844V19.0106ZM18.3608 17.3632C18.3608 17.5057 18.2449 17.6212 18.1028 17.6212H17.9498H17.5478H15.7219H8.27818H6.45305H5.89805C5.75593 17.6212 5.64005 17.5054 5.64005 17.3632V14.2031H18.3608V17.3632Z" fill="#6D6D6D"/>
</g>
<defs>
<clipPath id="clip0_135_441">
<rect width="24" height="24" fill="white"/>
</clipPath>
</defs>
</svg>
