<svg width="50" height="50" viewBox="0 0 50 50" fill="none" xmlns="http://www.w3.org/2000/svg">
<g id="home (1) 1">
<g id="Group">
<path id="Vector" d="M21.7121 42.2102H13.3788C10.6785 42.2003 8.4892 40.0191 8.46937 37.3189V20.7428C8.47467 19.8389 8.87915 18.9835 9.57444 18.4058L11.0418 17.3189C11.5775 16.7481 11.632 15.8772 11.1716 15.2441C10.7112 14.611 9.86583 14.3945 9.15777 14.7283L7.65415 15.8515C6.1374 17.0251 5.23732 18.8253 5.2085 20.7428V37.337C5.21846 41.8452 8.87059 45.4973 13.3788 45.5073H21.7121C22.6126 45.5073 23.3426 44.7773 23.3426 43.8769C23.3426 42.9764 22.6126 42.2464 21.7121 42.2464V42.2102Z" fill="#FF6647"/>
<path id="Vector_2" d="M44.3572 20.7066C44.3382 18.8031 43.4674 17.0083 41.984 15.8153L29.4659 5.83342C26.7151 3.62226 22.7965 3.62226 20.0456 5.83342L16.0783 8.71386C15.3329 9.24913 15.1625 10.2873 15.6978 11.0327C16.2331 11.7781 17.2713 11.9484 18.0167 11.4131L22.0384 8.40588C23.6169 7.10631 25.8947 7.10631 27.4732 8.40588L39.9913 18.3878C40.7118 18.9589 41.1375 19.8236 41.1507 20.7428V37.337C41.1507 40.0384 38.9608 42.2283 36.2594 42.2283H32.5456C32.1654 42.2283 31.8572 41.9201 31.8572 41.5399V34.0581C31.8573 31.6739 29.9298 29.7383 27.5456 29.7283H22.1109C20.9626 29.7283 19.8613 30.1845 19.0493 30.9965C18.2373 31.8085 17.7812 32.9097 17.7812 34.0581V36.9204C17.7812 37.8208 18.5111 38.5508 19.4116 38.5508C20.3121 38.5508 21.042 37.8208 21.042 36.9204V34.0581C21.0372 33.7763 21.1457 33.5043 21.3433 33.3033C21.5409 33.1024 21.8109 32.9892 22.0927 32.9892H27.5275C28.1078 32.9892 28.5783 33.4596 28.5783 34.0399V41.5399C28.5882 43.724 30.3616 45.4892 32.5456 45.4892H36.1688C40.6812 45.4892 44.3391 41.8313 44.3391 37.3189L44.3572 20.7066Z" fill="#FF6647"/>
</g>
</g>
</svg>
