<svg width="50" height="50" viewBox="0 0 50 50" fill="none" xmlns="http://www.w3.org/2000/svg">
<g id="online-location 1">
<path id="Vector" d="M40.625 1.5625H9.375C8.34905 1.5625 7.33314 1.76458 6.38529 2.15719C5.43743 2.54981 4.57619 3.12527 3.85073 3.85073C2.3856 5.31586 1.5625 7.303 1.5625 9.375V34.375C1.5625 36.447 2.3856 38.4341 3.85073 39.8993C4.57619 40.6247 5.43743 41.2002 6.38529 41.5928C7.33314 41.9854 8.34905 42.1875 9.375 42.1875H15.625V45.3125H9.375C8.9606 45.3125 8.56317 45.4771 8.27015 45.7701C7.97712 46.0632 7.8125 46.4606 7.8125 46.875C7.8125 47.2894 7.97712 47.6868 8.27015 47.9799C8.56317 48.2729 8.9606 48.4375 9.375 48.4375H40.625C41.0394 48.4375 41.4368 48.2729 41.7299 47.9799C42.0229 47.6868 42.1875 47.2894 42.1875 46.875C42.1875 46.4606 42.0229 46.0632 41.7299 45.7701C41.4368 45.4771 41.0394 45.3125 40.625 45.3125H34.375V42.1875H40.625C42.697 42.1875 44.6841 41.3644 46.1493 39.8993C47.6144 38.4341 48.4375 36.447 48.4375 34.375V9.375C48.4375 8.34905 48.2354 7.33314 47.8428 6.38529C47.4502 5.43743 46.8747 4.57619 46.1493 3.85073C45.4238 3.12527 44.5626 2.54981 43.6147 2.15719C42.6669 1.76458 41.651 1.5625 40.625 1.5625ZM31.25 45.3125H18.75V42.1875H31.25V45.3125ZM45.3125 34.375C45.3125 35.6182 44.8186 36.8105 43.9396 37.6896C43.0605 38.5686 41.8682 39.0625 40.625 39.0625H9.375C8.1318 39.0625 6.93951 38.5686 6.06044 37.6896C5.18136 36.8105 4.6875 35.6182 4.6875 34.375V9.375C4.6875 8.1318 5.18136 6.93951 6.06044 6.06044C6.93951 5.18136 8.1318 4.6875 9.375 4.6875H40.625C41.8682 4.6875 43.0605 5.18136 43.9396 6.06044C44.8186 6.93951 45.3125 8.1318 45.3125 9.375V34.375Z" fill="#FF6647"/>
<path id="Vector_2" d="M25 8.59375C22.0992 8.59375 19.3172 9.74609 17.266 11.7973C15.2148 13.8484 14.0625 16.6304 14.0625 19.5312C14.0625 25.2188 22.9219 33.7656 23.9219 34.7344C24.2125 35.0114 24.5985 35.1659 25 35.1659C25.4015 35.1659 25.7875 35.0114 26.0781 34.7344C27.0781 33.7656 35.9375 25.2188 35.9375 19.5312C35.9375 16.6304 34.7852 13.8484 32.734 11.7973C30.6828 9.74609 27.9008 8.59375 25 8.59375ZM25 31.4062C21.6094 27.9688 17.1875 22.4844 17.1875 19.5312C17.1875 17.4592 18.0106 15.4721 19.4757 14.007C20.9409 12.5419 22.928 11.7188 25 11.7188C27.072 11.7188 29.0591 12.5419 30.5243 14.007C31.9894 15.4721 32.8125 17.4592 32.8125 19.5312C32.8125 22.4844 28.3906 27.9688 25 31.4062Z" fill="#FF6647"/>
<path id="Vector_3" d="M25 14.0625C23.9184 14.0625 22.8611 14.3832 21.9617 14.9842C21.0624 15.5851 20.3615 16.4392 19.9475 17.4385C19.5336 18.4377 19.4253 19.5373 19.6363 20.5982C19.8473 21.659 20.3682 22.6334 21.133 23.3982C21.8978 24.1631 22.8723 24.6839 23.9331 24.8949C24.9939 25.1059 26.0935 24.9976 27.0928 24.5837C28.0921 24.1698 28.9462 23.4689 29.5471 22.5695C30.148 21.6702 30.4688 20.6129 30.4688 19.5312C30.4688 18.0808 29.8926 16.6898 28.867 15.6643C27.8414 14.6387 26.4504 14.0625 25 14.0625ZM25 21.875C24.5365 21.875 24.0833 21.7375 23.6979 21.48C23.3125 21.2225 23.0121 20.8564 22.8347 20.4282C22.6573 19.9999 22.6109 19.5286 22.7013 19.074C22.7917 18.6194 23.0149 18.2017 23.3427 17.874C23.6705 17.5462 24.0881 17.323 24.5428 17.2325C24.9974 17.1421 25.4687 17.1885 25.8969 17.3659C26.3252 17.5433 26.6912 17.8437 26.9488 18.2291C27.2063 18.6146 27.3438 19.0677 27.3438 19.5312C27.3438 20.1529 27.0968 20.749 26.6573 21.1885C26.2177 21.6281 25.6216 21.875 25 21.875Z" fill="#FF6647"/>
</g>
</svg>
