<svg width="24" height="24" viewBox="0 0 24 24" fill="none" xmlns="http://www.w3.org/2000/svg">
<g id="set-square" clip-path="url(#clip0_135_447)">
<path id="Vector" d="M1.875 6H0.375C0.275544 6 0.180161 5.96049 0.109835 5.89016C0.0395088 5.81984 0 5.72446 0 5.625C0 5.52554 0.0395088 5.43016 0.109835 5.35984C0.180161 5.28951 0.275544 5.25 0.375 5.25H1.875C1.97446 5.25 2.06984 5.28951 2.14016 5.35984C2.21049 5.43016 2.25 5.52554 2.25 5.625C2.25 5.72446 2.21049 5.81984 2.14016 5.89016C2.06984 5.96049 1.97446 6 1.875 6Z" fill="#6D6D6D"/>
<path id="Vector_2" d="M21.8146 24H1.87506C1.37778 24 0.900867 23.8024 0.549237 23.4508C0.197606 23.0992 6.17517e-05 22.6222 6.17517e-05 22.125V2.18547C-0.00229295 1.96242 0.0627438 1.74386 0.18666 1.55838C0.310577 1.37291 0.4876 1.22917 0.694562 1.14597C0.899808 1.05882 1.12653 1.03546 1.34524 1.07893C1.56394 1.12241 1.7645 1.2307 1.92081 1.38972L22.6096 22.0792C22.767 22.2365 22.8742 22.4369 22.9176 22.6552C22.9611 22.8734 22.9389 23.0996 22.8538 23.3052C22.7687 23.5108 22.6245 23.6866 22.4396 23.8102C22.2546 23.9339 22.0371 23.9999 21.8146 24ZM1.13181 1.80972C1.08035 1.81004 1.02944 1.82023 0.981812 1.83972C0.912817 1.86725 0.853762 1.915 0.812402 1.97671C0.771042 2.03841 0.74931 2.11119 0.750062 2.18547V22.125C0.750062 22.4233 0.868588 22.7095 1.07957 22.9205C1.29055 23.1314 1.57669 23.25 1.87506 23.25H21.8146C21.8888 23.2501 21.9615 23.2282 22.0233 23.187C22.085 23.1458 22.1332 23.0872 22.1616 23.0186C22.1901 22.95 22.1975 22.8745 22.183 22.8016C22.1685 22.7288 22.1326 22.6619 22.0801 22.6095L1.39056 1.92072C1.35721 1.88564 1.31707 1.85771 1.27259 1.83863C1.22811 1.81955 1.18021 1.80971 1.13181 1.80972Z" fill="#6D6D6D"/>
<path id="Vector_3" d="M11.3145 19.5H5.625C5.32663 19.5 5.04048 19.3815 4.8295 19.1705C4.61853 18.9595 4.5 18.6734 4.5 18.375V12.6855C4.4999 12.4629 4.56582 12.2453 4.68943 12.0602C4.81304 11.8751 4.98878 11.7308 5.19441 11.6457C5.40004 11.5605 5.62632 11.5382 5.84462 11.5816C6.06291 11.6251 6.26341 11.7323 6.42075 11.8897L12.1102 17.5792C12.2677 17.7366 12.3749 17.9371 12.4184 18.1554C12.4618 18.3737 12.4395 18.6 12.3543 18.8056C12.2692 19.0112 12.1249 19.187 11.9398 19.3106C11.7547 19.4342 11.5371 19.5001 11.3145 19.5ZM5.63175 12.3098C5.58029 12.3101 5.52937 12.3203 5.48175 12.3397C5.41276 12.3673 5.3537 12.415 5.31234 12.4767C5.27098 12.5384 5.24925 12.6112 5.25 12.6855V18.375C5.25 18.4745 5.28951 18.5698 5.35984 18.6402C5.43016 18.7105 5.52554 18.75 5.625 18.75H11.3145C11.3888 18.7501 11.4614 18.7282 11.5232 18.687C11.585 18.6458 11.6332 18.5872 11.6616 18.5186C11.69 18.45 11.6975 18.3745 11.6829 18.3017C11.6684 18.2288 11.6326 18.1619 11.58 18.1095L5.8905 12.4208C5.85715 12.3857 5.81701 12.3577 5.77253 12.3387C5.72805 12.3196 5.68015 12.3097 5.63175 12.3098ZM3.375 24C3.27554 24 3.18016 23.9605 3.10984 23.8902C3.03951 23.8198 3 23.7245 3 23.625V22.125C3 22.0255 3.03951 21.9302 3.10984 21.8598C3.18016 21.7895 3.27554 21.75 3.375 21.75C3.47446 21.75 3.56984 21.7895 3.64016 21.8598C3.71049 21.9302 3.75 22.0255 3.75 22.125V23.625C3.75 23.7245 3.71049 23.8198 3.64016 23.8902C3.56984 23.9605 3.47446 24 3.375 24ZM7.125 24C7.02554 24 6.93016 23.9605 6.85983 23.8902C6.78951 23.8198 6.75 23.7245 6.75 23.625V22.125C6.75 22.0255 6.78951 21.9302 6.85983 21.8598C6.93016 21.7895 7.02554 21.75 7.125 21.75C7.22446 21.75 7.31984 21.7895 7.39017 21.8598C7.46049 21.9302 7.5 22.0255 7.5 22.125V23.625C7.5 23.7245 7.46049 23.8198 7.39017 23.8902C7.31984 23.9605 7.22446 24 7.125 24ZM10.875 24C10.7755 24 10.6802 23.9605 10.6098 23.8902C10.5395 23.8198 10.5 23.7245 10.5 23.625V22.125C10.5 22.0255 10.5395 21.9302 10.6098 21.8598C10.6802 21.7895 10.7755 21.75 10.875 21.75C10.9745 21.75 11.0698 21.7895 11.1402 21.8598C11.2105 21.9302 11.25 22.0255 11.25 22.125V23.625C11.25 23.7245 11.2105 23.8198 11.1402 23.8902C11.0698 23.9605 10.9745 24 10.875 24ZM14.625 24C14.5255 24 14.4302 23.9605 14.3598 23.8902C14.2895 23.8198 14.25 23.7245 14.25 23.625V22.125C14.25 22.0255 14.2895 21.9302 14.3598 21.8598C14.4302 21.7895 14.5255 21.75 14.625 21.75C14.7245 21.75 14.8198 21.7895 14.8902 21.8598C14.9605 21.9302 15 22.0255 15 22.125V23.625C15 23.7245 14.9605 23.8198 14.8902 23.8902C14.8198 23.9605 14.7245 24 14.625 24ZM18.375 24C18.2755 24 18.1802 23.9605 18.1098 23.8902C18.0395 23.8198 18 23.7245 18 23.625V22.125C18 22.0255 18.0395 21.9302 18.1098 21.8598C18.1802 21.7895 18.2755 21.75 18.375 21.75C18.4745 21.75 18.5698 21.7895 18.6402 21.8598C18.7105 21.9302 18.75 22.0255 18.75 22.125V23.625C18.75 23.7245 18.7105 23.8198 18.6402 23.8902C18.5698 23.9605 18.4745 24 18.375 24ZM1.875 9.75H0.375C0.275544 9.75 0.180161 9.71049 0.109835 9.64017C0.0395088 9.56984 0 9.47446 0 9.375C0 9.27554 0.0395088 9.18016 0.109835 9.10983C0.180161 9.03951 0.275544 9 0.375 9H1.875C1.97446 9 2.06984 9.03951 2.14016 9.10983C2.21049 9.18016 2.25 9.27554 2.25 9.375C2.25 9.47446 2.21049 9.56984 2.14016 9.64017C2.06984 9.71049 1.97446 9.75 1.875 9.75ZM1.875 13.5H0.375C0.275544 13.5 0.180161 13.4605 0.109835 13.3902C0.0395088 13.3198 0 13.2245 0 13.125C0 13.0255 0.0395088 12.9302 0.109835 12.8598C0.180161 12.7895 0.275544 12.75 0.375 12.75H1.875C1.97446 12.75 2.06984 12.7895 2.14016 12.8598C2.21049 12.9302 2.25 13.0255 2.25 13.125C2.25 13.2245 2.21049 13.3198 2.14016 13.3902C2.06984 13.4605 1.97446 13.5 1.875 13.5ZM1.875 17.25H0.375C0.275544 17.25 0.180161 17.2105 0.109835 17.1402C0.0395088 17.0698 0 16.9745 0 16.875C0 16.7755 0.0395088 16.6802 0.109835 16.6098C0.180161 16.5395 0.275544 16.5 0.375 16.5H1.875C1.97446 16.5 2.06984 16.5395 2.14016 16.6098C2.21049 16.6802 2.25 16.7755 2.25 16.875C2.25 16.9745 2.21049 17.0698 2.14016 17.1402C2.06984 17.2105 1.97446 17.25 1.875 17.25ZM1.875 21H0.375C0.275544 21 0.180161 20.9605 0.109835 20.8902C0.0395088 20.8198 0 20.7245 0 20.625C0 20.5255 0.0395088 20.4302 0.109835 20.3598C0.180161 20.2895 0.275544 20.25 0.375 20.25H1.875C1.97446 20.25 2.06984 20.2895 2.14016 20.3598C2.21049 20.4302 2.25 20.5255 2.25 20.625C2.25 20.7245 2.21049 20.8198 2.14016 20.8902C2.06984 20.9605 1.97446 21 1.875 21Z" fill="#6D6D6D"/>
</g>
<defs>
<clipPath id="clip0_135_447">
<rect width="24" height="24" fill="white"/>
</clipPath>
</defs>
</svg>
